<mxfile host="Electron" modified="2023-12-20T10:14:29.937Z" agent="Mozilla/5.0 (Macintosh; Intel Mac OS X 10_15_7) AppleWebKit/537.36 (KHTML, like Gecko) draw.io/22.1.11 Chrome/114.0.5735.289 Electron/25.9.8 Safari/537.36" etag="UrUiGSIv6SzHx9SGVami" version="22.1.11" type="device">
  <diagram name="Side-1" id="pV-6bpnw1Z1SQZ2qbu6a">
    <mxGraphModel dx="1085" dy="675" grid="1" gridSize="10" guides="1" tooltips="1" connect="1" arrows="1" fold="1" page="1" pageScale="1" pageWidth="827" pageHeight="1169" math="0" shadow="0">
      <root>
        <mxCell id="0" />
        <mxCell id="1" parent="0" />
        <mxCell id="R09xHesNsETbmuexuqI--22" value="" style="rounded=0;whiteSpace=wrap;html=1;" vertex="1" parent="1">
          <mxGeometry x="630" y="60" width="150" height="120" as="geometry" />
        </mxCell>
        <mxCell id="oxl5R9OsGQv054VB6hzU-14" value="Author" style="swimlane;fontStyle=0;childLayout=stackLayout;horizontal=1;startSize=26;fillColor=none;horizontalStack=0;resizeParent=1;resizeParentMax=0;resizeLast=0;collapsible=1;marginBottom=0;whiteSpace=wrap;html=1;" parent="1" vertex="1">
          <mxGeometry x="80" y="338" width="190" height="52" as="geometry" />
        </mxCell>
        <mxCell id="oxl5R9OsGQv054VB6hzU-98" value="" style="endArrow=none;html=1;rounded=0;entryX=0.482;entryY=1.111;entryDx=0;entryDy=0;entryPerimeter=0;" parent="oxl5R9OsGQv054VB6hzU-14" edge="1">
          <mxGeometry width="50" height="50" relative="1" as="geometry">
            <mxPoint y="32" as="sourcePoint" />
            <mxPoint x="91.58000000000004" y="54.88599999999997" as="targetPoint" />
            <Array as="points">
              <mxPoint x="-40" y="32" />
              <mxPoint x="-40" y="142" />
              <mxPoint x="20" y="142" />
              <mxPoint x="90" y="142" />
            </Array>
          </mxGeometry>
        </mxCell>
        <mxCell id="oxl5R9OsGQv054VB6hzU-20" value="Cheep" style="swimlane;fontStyle=0;childLayout=stackLayout;horizontal=1;startSize=26;fillColor=none;horizontalStack=0;resizeParent=1;resizeParentMax=0;resizeLast=0;collapsible=1;marginBottom=0;whiteSpace=wrap;html=1;" parent="1" vertex="1">
          <mxGeometry x="410" y="338" width="160" height="130" as="geometry" />
        </mxCell>
        <mxCell id="oxl5R9OsGQv054VB6hzU-21" value="+ Id: int&amp;nbsp;&amp;nbsp;" style="text;strokeColor=none;fillColor=none;align=left;verticalAlign=top;spacingLeft=4;spacingRight=4;overflow=hidden;rotatable=0;points=[[0,0.5],[1,0.5]];portConstraint=eastwest;whiteSpace=wrap;html=1;" parent="oxl5R9OsGQv054VB6hzU-20" vertex="1">
          <mxGeometry y="26" width="160" height="26" as="geometry" />
        </mxCell>
        <mxCell id="R09xHesNsETbmuexuqI--24" value="+ Text: string&amp;nbsp;&lt;br&gt;" style="text;strokeColor=none;fillColor=none;align=left;verticalAlign=top;spacingLeft=4;spacingRight=4;overflow=hidden;rotatable=0;points=[[0,0.5],[1,0.5]];portConstraint=eastwest;whiteSpace=wrap;html=1;" vertex="1" parent="oxl5R9OsGQv054VB6hzU-20">
          <mxGeometry y="52" width="160" height="26" as="geometry" />
        </mxCell>
        <mxCell id="oxl5R9OsGQv054VB6hzU-23" value="+ TimeStamp: DateTime" style="text;strokeColor=none;fillColor=none;align=left;verticalAlign=top;spacingLeft=4;spacingRight=4;overflow=hidden;rotatable=0;points=[[0,0.5],[1,0.5]];portConstraint=eastwest;whiteSpace=wrap;html=1;" parent="oxl5R9OsGQv054VB6hzU-20" vertex="1">
          <mxGeometry y="78" width="160" height="26" as="geometry" />
        </mxCell>
        <mxCell id="oxl5R9OsGQv054VB6hzU-24" value="+ AuthorId: int&amp;nbsp;&lt;br&gt;&lt;br&gt;" style="text;strokeColor=none;fillColor=none;align=left;verticalAlign=top;spacingLeft=4;spacingRight=4;overflow=hidden;rotatable=0;points=[[0,0.5],[1,0.5]];portConstraint=eastwest;whiteSpace=wrap;html=1;" parent="oxl5R9OsGQv054VB6hzU-20" vertex="1">
          <mxGeometry y="104" width="160" height="26" as="geometry" />
        </mxCell>
        <mxCell id="oxl5R9OsGQv054VB6hzU-25" value="Like" style="swimlane;fontStyle=0;childLayout=stackLayout;horizontal=1;startSize=26;fillColor=none;horizontalStack=0;resizeParent=1;resizeParentMax=0;resizeLast=0;collapsible=1;marginBottom=0;whiteSpace=wrap;html=1;" parent="1" vertex="1">
          <mxGeometry x="700" y="337" width="120" height="90" as="geometry" />
        </mxCell>
        <mxCell id="oxl5R9OsGQv054VB6hzU-29" value="+ AuthorId: int&amp;nbsp;&lt;br&gt;&lt;br&gt;+ CheepId: int" style="text;strokeColor=none;fillColor=none;align=left;verticalAlign=top;spacingLeft=4;spacingRight=4;overflow=hidden;rotatable=0;points=[[0,0.5],[1,0.5]];portConstraint=eastwest;whiteSpace=wrap;html=1;" parent="oxl5R9OsGQv054VB6hzU-25" vertex="1">
          <mxGeometry y="26" width="120" height="64" as="geometry" />
        </mxCell>
        <mxCell id="oxl5R9OsGQv054VB6hzU-30" value="" style="endArrow=none;html=1;edgeStyle=orthogonalEdgeStyle;rounded=0;entryX=0;entryY=0.5;entryDx=0;entryDy=0;exitX=0.998;exitY=1.019;exitDx=0;exitDy=0;exitPerimeter=0;" parent="1" edge="1">
          <mxGeometry relative="1" as="geometry">
            <mxPoint x="269.62" y="390.494" as="sourcePoint" />
            <mxPoint x="410" y="403" as="targetPoint" />
          </mxGeometry>
        </mxCell>
        <mxCell id="oxl5R9OsGQv054VB6hzU-31" value="Cheeps*" style="edgeLabel;resizable=0;html=1;align=left;verticalAlign=bottom;" parent="oxl5R9OsGQv054VB6hzU-30" connectable="0" vertex="1">
          <mxGeometry x="-1" relative="1" as="geometry">
            <mxPoint x="90" y="30" as="offset" />
          </mxGeometry>
        </mxCell>
        <mxCell id="oxl5R9OsGQv054VB6hzU-32" value="Author&amp;nbsp; 1" style="edgeLabel;resizable=0;html=1;align=right;verticalAlign=bottom;" parent="oxl5R9OsGQv054VB6hzU-30" connectable="0" vertex="1">
          <mxGeometry x="1" relative="1" as="geometry">
            <mxPoint x="-90" y="-23" as="offset" />
          </mxGeometry>
        </mxCell>
        <mxCell id="oxl5R9OsGQv054VB6hzU-33" value="" style="endArrow=none;html=1;edgeStyle=orthogonalEdgeStyle;rounded=0;entryX=-0.002;entryY=0.449;entryDx=0;entryDy=0;entryPerimeter=0;exitX=1.011;exitY=1.077;exitDx=0;exitDy=0;exitPerimeter=0;" parent="1" target="oxl5R9OsGQv054VB6hzU-29" edge="1">
          <mxGeometry relative="1" as="geometry">
            <mxPoint x="571.76" y="418.00199999999995" as="sourcePoint" />
            <mxPoint x="730" y="418" as="targetPoint" />
            <Array as="points">
              <mxPoint x="700" y="418" />
            </Array>
          </mxGeometry>
        </mxCell>
        <mxCell id="oxl5R9OsGQv054VB6hzU-34" value="Likes*&amp;nbsp;" style="edgeLabel;resizable=0;html=1;align=left;verticalAlign=bottom;" parent="oxl5R9OsGQv054VB6hzU-33" connectable="0" vertex="1">
          <mxGeometry x="-1" relative="1" as="geometry">
            <mxPoint x="88" as="offset" />
          </mxGeometry>
        </mxCell>
        <mxCell id="oxl5R9OsGQv054VB6hzU-35" value="Cheep 1" style="edgeLabel;resizable=0;html=1;align=right;verticalAlign=bottom;" parent="oxl5R9OsGQv054VB6hzU-33" connectable="0" vertex="1">
          <mxGeometry x="1" relative="1" as="geometry">
            <mxPoint x="-80" y="25" as="offset" />
          </mxGeometry>
        </mxCell>
        <mxCell id="oxl5R9OsGQv054VB6hzU-36" value="" style="endArrow=none;html=1;edgeStyle=orthogonalEdgeStyle;rounded=0;entryX=0.5;entryY=0;entryDx=0;entryDy=0;exitX=0.5;exitY=0;exitDx=0;exitDy=0;" parent="1" target="oxl5R9OsGQv054VB6hzU-25" edge="1">
          <mxGeometry relative="1" as="geometry">
            <mxPoint x="145" y="338" as="sourcePoint" />
            <mxPoint x="810.6799999999998" y="297.2800000000001" as="targetPoint" />
            <Array as="points">
              <mxPoint x="160" y="338" />
              <mxPoint x="160" y="268" />
              <mxPoint x="760" y="268" />
            </Array>
          </mxGeometry>
        </mxCell>
        <mxCell id="oxl5R9OsGQv054VB6hzU-38" value="Author 1" style="edgeLabel;resizable=0;html=1;align=right;verticalAlign=bottom;" parent="oxl5R9OsGQv054VB6hzU-36" connectable="0" vertex="1">
          <mxGeometry x="1" relative="1" as="geometry">
            <mxPoint x="-550" y="-7" as="offset" />
          </mxGeometry>
        </mxCell>
        <mxCell id="oxl5R9OsGQv054VB6hzU-39" value="IdentityUser" style="swimlane;fontStyle=0;childLayout=stackLayout;horizontal=1;startSize=26;fillColor=none;horizontalStack=0;resizeParent=1;resizeParentMax=0;resizeLast=0;collapsible=1;marginBottom=0;whiteSpace=wrap;html=1;" parent="1" vertex="1">
          <mxGeometry x="70" y="68" width="140" height="104" as="geometry" />
        </mxCell>
        <mxCell id="oxl5R9OsGQv054VB6hzU-40" value="+ id: int" style="text;strokeColor=none;fillColor=none;align=left;verticalAlign=top;spacingLeft=4;spacingRight=4;overflow=hidden;rotatable=0;points=[[0,0.5],[1,0.5]];portConstraint=eastwest;whiteSpace=wrap;html=1;" parent="oxl5R9OsGQv054VB6hzU-39" vertex="1">
          <mxGeometry y="26" width="140" height="26" as="geometry" />
        </mxCell>
        <mxCell id="oxl5R9OsGQv054VB6hzU-41" value="+ UserName: string" style="text;strokeColor=none;fillColor=none;align=left;verticalAlign=top;spacingLeft=4;spacingRight=4;overflow=hidden;rotatable=0;points=[[0,0.5],[1,0.5]];portConstraint=eastwest;whiteSpace=wrap;html=1;" parent="oxl5R9OsGQv054VB6hzU-39" vertex="1">
          <mxGeometry y="52" width="140" height="26" as="geometry" />
        </mxCell>
        <mxCell id="oxl5R9OsGQv054VB6hzU-42" value="+ Email: string" style="text;strokeColor=none;fillColor=none;align=left;verticalAlign=top;spacingLeft=4;spacingRight=4;overflow=hidden;rotatable=0;points=[[0,0.5],[1,0.5]];portConstraint=eastwest;whiteSpace=wrap;html=1;" parent="oxl5R9OsGQv054VB6hzU-39" vertex="1">
          <mxGeometry y="78" width="140" height="26" as="geometry" />
        </mxCell>
        <mxCell id="oxl5R9OsGQv054VB6hzU-43" value="" style="endArrow=block;endFill=0;endSize=12;html=1;rounded=0;entryX=0.524;entryY=0.953;entryDx=0;entryDy=0;entryPerimeter=0;exitX=0.334;exitY=-0.018;exitDx=0;exitDy=0;exitPerimeter=0;" parent="1" source="oxl5R9OsGQv054VB6hzU-14" target="oxl5R9OsGQv054VB6hzU-42" edge="1">
          <mxGeometry width="160" relative="1" as="geometry">
            <mxPoint x="190" y="208" as="sourcePoint" />
            <mxPoint x="350" y="208" as="targetPoint" />
          </mxGeometry>
        </mxCell>
        <mxCell id="oxl5R9OsGQv054VB6hzU-45" value="Likes*" style="edgeLabel;resizable=0;html=1;align=left;verticalAlign=bottom;" parent="1" connectable="0" vertex="1">
          <mxGeometry x="770" y="330.0000000000002" as="geometry" />
        </mxCell>
        <mxCell id="oxl5R9OsGQv054VB6hzU-60" value="" style="html=1;whiteSpace=wrap;fillColor=none;" parent="1" vertex="1">
          <mxGeometry x="30" y="20" width="320" height="200" as="geometry" />
        </mxCell>
        <mxCell id="oxl5R9OsGQv054VB6hzU-61" value="Microsoft.AspNetCore.Identity.EntityFrameworkCore" style="text;html=1;strokeColor=none;fillColor=none;align=center;verticalAlign=middle;whiteSpace=wrap;rounded=0;" parent="1" vertex="1">
          <mxGeometry x="160" y="28" width="60" height="30" as="geometry" />
        </mxCell>
        <mxCell id="oxl5R9OsGQv054VB6hzU-99" value="Followers*" style="edgeLabel;resizable=0;html=1;align=right;verticalAlign=bottom;" parent="1" connectable="0" vertex="1">
          <mxGeometry x="230.00220602100595" y="450" as="geometry" />
        </mxCell>
        <mxCell id="oxl5R9OsGQv054VB6hzU-100" value="Following*" style="edgeLabel;resizable=0;html=1;align=right;verticalAlign=bottom;" parent="1" connectable="0" vertex="1">
          <mxGeometry x="60.00220602100595" y="364" as="geometry" />
        </mxCell>
        <mxCell id="R09xHesNsETbmuexuqI--16" value="" style="endArrow=block;endFill=0;endSize=12;html=1;rounded=0;" edge="1" parent="1">
          <mxGeometry width="160" relative="1" as="geometry">
            <mxPoint x="720" y="85.2" as="sourcePoint" />
            <mxPoint x="760" y="84.8" as="targetPoint" />
          </mxGeometry>
        </mxCell>
        <mxCell id="R09xHesNsETbmuexuqI--17" value="Inheritance" style="text;html=1;strokeColor=none;fillColor=none;align=center;verticalAlign=middle;whiteSpace=wrap;rounded=0;" vertex="1" parent="1">
          <mxGeometry x="640" y="70" width="60" height="30" as="geometry" />
        </mxCell>
        <mxCell id="R09xHesNsETbmuexuqI--19" value="Association" style="text;html=1;strokeColor=none;fillColor=none;align=center;verticalAlign=middle;whiteSpace=wrap;rounded=0;" vertex="1" parent="1">
          <mxGeometry x="640" y="130" width="60" height="30" as="geometry" />
        </mxCell>
        <mxCell id="R09xHesNsETbmuexuqI--21" value="" style="endArrow=none;html=1;rounded=0;" edge="1" parent="1">
          <mxGeometry width="50" height="50" relative="1" as="geometry">
            <mxPoint x="720" y="144.84" as="sourcePoint" />
            <mxPoint x="760" y="144.84" as="targetPoint" />
          </mxGeometry>
        </mxCell>
        <mxCell id="R09xHesNsETbmuexuqI--23" value="" style="endArrow=none;html=1;rounded=0;entryX=1;entryY=0.5;entryDx=0;entryDy=0;exitX=0;exitY=0.5;exitDx=0;exitDy=0;" edge="1" parent="1" source="R09xHesNsETbmuexuqI--22" target="R09xHesNsETbmuexuqI--22">
          <mxGeometry width="50" height="50" relative="1" as="geometry">
            <mxPoint x="490" y="240" as="sourcePoint" />
            <mxPoint x="540" y="190" as="targetPoint" />
          </mxGeometry>
        </mxCell>
      </root>
    </mxGraphModel>
  </diagram>
</mxfile>
